<svg width="24" height="24" viewBox="0 0 24 24" fill="none" xmlns="http://www.w3.org/2000/svg">
<mask id="mask0_1060_2655" style="mask-type:alpha" maskUnits="userSpaceOnUse" x="0" y="0" width="21" height="24">
<rect width="21" height="24" fill="#D9D9D9"/>
</mask>
<g mask="url(#mask0_1060_2655)">
<path d="M4.375 22C3.89375 22 3.48177 21.8042 3.13906 21.4125C2.79635 21.0208 2.625 20.55 2.625 20V6C2.625 5.45 2.79635 4.97917 3.13906 4.5875C3.48177 4.19583 3.89375 4 4.375 4H5.25V2H7V4H14V2H15.75V4H16.625C17.1062 4 17.5182 4.19583 17.8609 4.5875C18.2036 4.97917 18.375 5.45 18.375 6V11H16.625V10H4.375V20H10.5V22H4.375ZM4.375 8H16.625V6H4.375V8ZM12.25 22V18.925L17.0844 13.425C17.2156 13.275 17.3615 13.1667 17.5219 13.1C17.6823 13.0333 17.8427 13 18.0031 13C18.1781 13 18.3458 13.0375 18.5062 13.1125C18.6667 13.1875 18.8125 13.3 18.9438 13.45L19.7531 14.375C19.8698 14.525 19.9609 14.6917 20.0266 14.875C20.0922 15.0583 20.125 15.2417 20.125 15.425C20.125 15.6083 20.0958 15.7958 20.0375 15.9875C19.9792 16.1792 19.8844 16.35 19.7531 16.5L14.9406 22H12.25ZM13.5625 20.5H14.3938L17.0406 17.45L16.6469 16.975L16.2312 16.525L13.5625 19.55V20.5ZM16.6469 16.975L16.2312 16.525L17.0406 17.45L16.6469 16.975Z" fill="#D9D9D9"/>
</g>
</svg>
