<svg width="40" height="40" viewBox="0 0 40 40" fill="none" xmlns="http://www.w3.org/2000/svg">
<circle cx="20" cy="20" r="19.5" stroke="#23CE7C"/>
<mask id="mask0_59_852" style="mask-type:alpha" maskUnits="userSpaceOnUse" x="6" y="6" width="28" height="28">
<rect x="6" y="6" width="28" height="28" fill="#D9D9D9"/>
</mask>
<g mask="url(#mask0_59_852)">
<path d="M20.0023 19.9989C18.7189 19.9989 17.6203 19.5419 16.7064 18.628C15.7926 17.7141 15.3356 16.6155 15.3356 15.3322C15.3356 14.0489 15.7926 12.9502 16.7064 12.0364C17.6203 11.1225 18.7189 10.6655 20.0023 10.6655C21.2856 10.6655 22.3842 11.1225 23.2981 12.0364C24.212 12.9502 24.6689 14.0489 24.6689 15.3322C24.6689 16.6155 24.212 17.7141 23.2981 18.628C22.3842 19.5419 21.2856 19.9989 20.0023 19.9989ZM10.6689 29.3322V26.0655C10.6689 25.4044 10.8391 24.7968 11.1794 24.2426C11.5196 23.6884 11.9717 23.2655 12.5356 22.9739C13.7412 22.3711 14.9662 21.919 16.2106 21.6176C17.4551 21.3162 18.7189 21.1655 20.0023 21.1655C21.2856 21.1655 22.5495 21.3162 23.7939 21.6176C25.0384 21.919 26.2634 22.3711 27.4689 22.9739C28.0328 23.2655 28.4849 23.6884 28.8252 24.2426C29.1655 24.7968 29.3356 25.4044 29.3356 26.0655V29.3322H10.6689Z" fill="#4F356E"/>
</g>
</svg>
