<svg width="40" height="40" viewBox="0 0 40 40" fill="none" xmlns="http://www.w3.org/2000/svg">
<circle cx="20" cy="20" r="19.5" stroke="#23CE7C"/>
<mask id="mask0_59_879" style="mask-type:alpha" maskUnits="userSpaceOnUse" x="6" y="6" width="28" height="28">
<rect x="6" y="6" width="28" height="28" fill="#D9D9D9"/>
</mask>
<g mask="url(#mask0_59_879)">
<path d="M18.3666 24.6667C18.3666 23.0917 18.5076 21.959 18.7895 21.2687C19.0715 20.5785 19.6694 19.825 20.5833 19.0083C21.3805 18.3083 21.9881 17.7007 22.4062 17.1854C22.8242 16.6701 23.0333 16.0819 23.0333 15.4208C23.0333 14.6236 22.7659 13.9625 22.2312 13.4375C21.6965 12.9125 20.9527 12.65 19.9999 12.65C19.0083 12.65 18.2548 12.9514 17.7395 13.5542C17.2242 14.1569 16.8597 14.7694 16.6458 15.3917L13.6416 14.1083C14.0499 12.8639 14.7985 11.7847 15.8874 10.8708C16.9763 9.95694 18.3472 9.5 19.9999 9.5C22.0416 9.5 23.6117 10.0687 24.7104 11.2062C25.809 12.3437 26.3583 13.7097 26.3583 15.3042C26.3583 16.2764 26.1492 17.1076 25.7312 17.7979C25.3131 18.4882 24.6569 19.2708 23.7624 20.1458C22.8097 21.0597 22.2312 21.7549 22.027 22.2312C21.8229 22.7076 21.7208 23.5194 21.7208 24.6667H18.3666ZM19.9999 31.6667C19.3583 31.6667 18.809 31.4382 18.352 30.9812C17.8951 30.5243 17.6666 29.975 17.6666 29.3333C17.6666 28.6917 17.8951 28.1424 18.352 27.6854C18.809 27.2285 19.3583 27 19.9999 27C20.6416 27 21.1909 27.2285 21.6479 27.6854C22.1048 28.1424 22.3333 28.6917 22.3333 29.3333C22.3333 29.975 22.1048 30.5243 21.6479 30.9812C21.1909 31.4382 20.6416 31.6667 19.9999 31.6667Z" fill="#4F356E"/>
</g>
</svg>
