<svg width="40" height="40" viewBox="0 0 40 40" fill="none" xmlns="http://www.w3.org/2000/svg">
<mask id="mask0_1037_995" style="mask-type:alpha" maskUnits="userSpaceOnUse" x="0" y="0" width="40" height="40">
<rect width="40" height="40" fill="#D9D9D9"/>
</mask>
<g mask="url(#mask0_1037_995)">
<path d="M20.0869 28.4562C20.5162 28.4562 20.875 28.3114 21.1631 28.0216C21.4512 27.7319 21.5952 27.3728 21.5952 26.9445V19.8451C21.5952 19.4168 21.45 19.0577 21.1596 18.768C20.8692 18.4782 20.5093 18.3334 20.08 18.3334C19.6507 18.3334 19.2919 18.4782 19.0038 18.768C18.7157 19.0577 18.5717 19.4168 18.5717 19.8451V26.9445C18.5717 27.3728 18.7169 27.7319 19.0073 28.0216C19.2977 28.3114 19.6576 28.4562 20.0869 28.4562ZM20.0002 15.3328C20.4644 15.3328 20.8535 15.1784 21.1674 14.8697C21.4814 14.5611 21.6384 14.1786 21.6384 13.7223C21.6384 13.2452 21.4814 12.8483 21.1675 12.5314C20.8536 12.2146 20.4646 12.0562 20.0006 12.0562C19.5316 12.0562 19.1412 12.2146 18.8294 12.5314C18.5177 12.8483 18.3618 13.2441 18.3618 13.7189C18.3618 14.178 18.5188 14.5618 18.8329 14.8701C19.1469 15.1786 19.536 15.3328 20.0002 15.3328ZM20.0084 36.9457C17.6629 36.9457 15.4618 36.5018 13.4053 35.6141C11.3487 34.7263 9.55328 33.5154 8.01903 31.9811C6.48478 30.4469 5.27379 28.651 4.38607 26.5937C3.49832 24.5364 3.05444 22.3341 3.05444 19.9871C3.05444 17.64 3.49832 15.4374 4.38607 13.3795C5.27379 11.3215 6.48443 9.52991 8.01799 8.00469C9.55154 6.47947 11.3472 5.27201 13.4048 4.38231C15.4625 3.49259 17.6651 3.04773 20.0125 3.04773C22.36 3.04773 24.563 3.49241 26.6214 4.38177C28.6799 5.27116 30.4716 6.47817 31.9965 8.00281C33.5214 9.52742 34.7286 11.3203 35.6181 13.3814C36.5076 15.4425 36.9524 17.6462 36.9524 19.9926C36.9524 22.3388 36.5075 24.5401 35.6178 26.5966C34.7281 28.6531 33.5207 30.4465 31.9954 31.9768C30.4702 33.5071 28.6775 34.7178 26.6172 35.609C24.5568 36.5001 22.3539 36.9457 20.0084 36.9457ZM20.014 33.7893C23.8485 33.7893 27.1031 32.4488 29.7776 29.7678C32.4521 27.0868 33.7894 23.8263 33.7894 19.9861C33.7894 16.1516 32.4538 12.897 29.7828 10.2225C27.1118 7.54802 23.8498 6.21077 19.9968 6.21077C16.1693 6.21077 12.9147 7.54629 10.2332 10.2173C7.55164 12.8884 6.21086 16.1504 6.21086 20.0034C6.21086 23.8309 7.55136 27.0854 10.2324 29.7669C12.9133 32.4485 16.1739 33.7893 20.014 33.7893Z" fill="#977DBA"/>
</g>
</svg>
