<svg width="40" height="40" viewBox="0 0 40 40" fill="none" xmlns="http://www.w3.org/2000/svg">
<circle cx="20" cy="20" r="19.5" stroke="#23CE7C"/>
<mask id="mask0_59_878" style="mask-type:alpha" maskUnits="userSpaceOnUse" x="6" y="6" width="28" height="28">
<rect x="6" y="6" width="28" height="28" fill="#D9D9D9"/>
</mask>
<g mask="url(#mask0_59_878)">
<path d="M12.9993 31.6667C12.3577 31.6667 11.8084 31.4382 11.3514 30.9813C10.8945 30.5243 10.666 29.975 10.666 29.3334V17.6667C10.666 17.025 10.8945 16.4757 11.3514 16.0188C11.8084 15.5618 12.3577 15.3334 12.9993 15.3334H14.166V13C14.166 11.3861 14.7348 10.0104 15.8723 8.87294C17.0098 7.73544 18.3855 7.16669 19.9993 7.16669C21.6132 7.16669 22.9889 7.73544 24.1264 8.87294C25.2639 10.0104 25.8327 11.3861 25.8327 13V15.3334H26.9993C27.641 15.3334 28.1903 15.5618 28.6473 16.0188C29.1042 16.4757 29.3327 17.025 29.3327 17.6667V29.3334C29.3327 29.975 29.1042 30.5243 28.6473 30.9813C28.1903 31.4382 27.641 31.6667 26.9993 31.6667H12.9993ZM19.9993 25.8334C20.641 25.8334 21.1903 25.6049 21.6473 25.1479C22.1042 24.691 22.3327 24.1417 22.3327 23.5C22.3327 22.8584 22.1042 22.309 21.6473 21.8521C21.1903 21.3952 20.641 21.1667 19.9993 21.1667C19.3577 21.1667 18.8084 21.3952 18.3514 21.8521C17.8945 22.309 17.666 22.8584 17.666 23.5C17.666 24.1417 17.8945 24.691 18.3514 25.1479C18.8084 25.6049 19.3577 25.8334 19.9993 25.8334ZM16.4993 15.3334H23.4993V13C23.4993 12.0278 23.1591 11.2014 22.4785 10.5209C21.798 9.8403 20.9716 9.50002 19.9993 9.50002C19.0271 9.50002 18.2007 9.8403 17.5202 10.5209C16.8396 11.2014 16.4993 12.0278 16.4993 13V15.3334Z" fill="#4F356E"/>
</g>
</svg>
